<svg viewBox="0 0 2473 2350" fill="none" xmlns="http://www.w3.org/2000/svg">
<circle cx="1252" cy="1300" r="1050" fill="#F8D5B1"/>
<g clip-path="url(#clip0)">
<path d="M2047.66 931.779L2036.08 1094.65C2052.65 1094.65 2059.82 1087.53 2068.43 1078.98L2146.1 1004.75L2307.04 1122.62C2336.56 1139.07 2357.35 1130.4 2365.31 1095.46L2470.96 600.446L2470.98 600.417C2480.35 556.783 2455.21 539.721 2426.45 550.425L1805.49 788.163C1763.11 804.613 1763.75 828.238 1798.28 838.942L1957.04 888.321L2325.79 657.583C2343.15 646.092 2358.93 652.45 2345.95 663.942L2047.66 931.779Z" fill="#213770"/>
</g>
<g clip-path="url(#clip1)">
<path d="M1079.28 217.169C1069.32 222.919 1056.57 219.502 1050.82 209.543C1021.61 158.935 974.445 122.75 918.001 107.611C906.873 104.629 900.29 93.2268 903.271 82.0993C906.253 70.9719 917.656 64.3886 928.783 67.3702C995.974 85.3741 1052.13 128.467 1086.91 188.71C1092.66 198.669 1089.24 211.419 1079.28 217.169V217.169Z" fill="#E47907"/>
<path d="M718.438 425.502C708.479 431.252 695.729 427.835 689.979 417.876C655.198 357.633 645.955 287.457 663.959 220.266C666.94 209.138 678.343 202.555 689.47 205.537C700.598 208.518 707.181 219.921 704.2 231.048C689.078 287.482 696.845 346.434 726.064 397.043C731.814 407.002 728.397 419.752 718.438 425.502V425.502Z" fill="#E47907"/>
<path d="M1130.9 332.45C1090.31 325.142 1055.21 300.47 1034.59 264.765L1005.55 214.463C968.897 150.973 891.391 125.645 825.217 152.111L813.967 132.626C808.206 122.648 795.467 119.25 785.508 125C775.549 130.75 772.122 143.482 777.882 153.459L789.132 172.945C733.107 217.03 716.306 296.806 752.963 360.297L782.004 410.598C802.619 446.304 806.434 489.038 792.388 528.084C788.838 538.144 789.857 549.199 795.19 558.437C805.242 575.848 827.582 581.834 844.993 571.782L1142.69 399.907C1160.1 389.854 1166.09 367.514 1156.03 350.104C1150.7 340.866 1141.64 334.456 1130.9 332.45Z" fill="#E47907"/>
<path d="M1035.51 558.013C1068.18 539.148 1082.07 500.074 1070.55 465.615L937.973 542.157C962.053 569.366 1002.84 576.877 1035.51 558.013Z" fill="#E47907"/>
</g>
<path d="M652 1149.99L1229.8 1517.72C1236.4 1522.59 1244.2 1524.99 1252 1524.99C1259.8 1524.99 1267.6 1522.59 1274.2 1517.72L1852 1149.99L1274.5 707.49C1261.15 697.515 1242.85 697.515 1229.5 707.49L652 1149.99Z" fill="#4D6CBC"/>
<path d="M1627 700H877C835.675 700 802 733.675 802 775V1600C802 1620.7 818.8 1637.5 839.5 1637.5H1664.5C1685.2 1637.5 1702 1620.7 1702 1600V775C1702 733.675 1668.4 700 1627 700Z" fill="#ECEFF1"/>
<path d="M989.5 925H1514.5C1535.2 925 1552 908.2 1552 887.5C1552 866.8 1535.2 850 1514.5 850H989.5C968.8 850 952 866.8 952 887.5C952 908.2 968.8 925 989.5 925Z" fill="#90A4AE"/>
<path d="M1514.5 1000H989.5C968.8 1000 952 1016.8 952 1037.5C952 1058.2 968.8 1075 989.5 1075H1514.5C1535.2 1075 1552 1058.2 1552 1037.5C1552 1016.8 1535.2 1000 1514.5 1000Z" fill="#90A4AE"/>
<path d="M1289.5 1150H989.5C968.8 1150 952 1166.8 952 1187.5C952 1208.2 968.8 1225 989.5 1225H1289.5C1310.2 1225 1327 1208.2 1327 1187.5C1327 1166.8 1310.2 1150 1289.5 1150Z" fill="#90A4AE"/>
<path d="M1274.2 1517.72C1267.6 1522.6 1259.8 1525 1252 1525C1244.2 1525 1236.4 1522.6 1229.8 1517.72L652 1150V1825C652 1866.4 685.6 1900 727 1900H1777C1818.4 1900 1852 1866.4 1852 1825V1150L1274.2 1517.72Z" fill="#213770"/>
<path d="M1777 1900H727C684.925 1900 652 1867.07 652 1825C652 1813.08 657.7 1801.83 667.3 1794.78L1229.8 1419.78C1236.4 1414.9 1244.2 1412.5 1252 1412.5C1259.8 1412.5 1267.6 1414.9 1274.2 1419.78L1836.7 1794.78C1846.3 1801.83 1852 1813.08 1852 1825C1852 1867.07 1819.07 1900 1777 1900Z" fill="#213770"/>
<path d="M557.87 534.726H541.437V715.353C541.437 743.476 525.063 768.906 492.236 768.906H170.621V777.494C170.621 802.358 198.901 827.456 227.941 827.456H473.832L567.902 882.766L554.26 827.456H557.87C586.891 827.456 599.987 802.416 599.987 777.494V577.604C599.987 552.74 586.891 534.726 557.87 534.726Z" fill="#213770"/>
<path d="M444.238 409.234H70.6893C37.8232 409.234 0 438.431 0 466.574V692.967C0 718.885 32.0463 737.601 62.785 740.49L42.7805 816.429L170.966 741.017H444.238C477.104 741.017 507.433 721.09 507.433 692.967V509.803V466.574C507.433 438.431 477.084 409.234 444.238 409.234ZM127.678 600.341C109.039 600.341 93.9336 585.235 93.9336 566.597C93.9336 547.958 109.039 532.852 127.678 532.852C146.297 532.852 161.422 547.958 161.422 566.597C161.422 585.235 146.297 600.341 127.678 600.341ZM253.716 600.341C235.078 600.341 219.972 585.235 219.972 566.597C219.972 547.958 235.078 532.852 253.716 532.852C272.355 532.852 287.461 547.958 287.461 566.597C287.461 585.235 272.355 600.341 253.716 600.341ZM379.774 600.341C361.136 600.341 346.011 585.235 346.011 566.597C346.011 547.958 361.136 532.852 379.774 532.852C398.374 532.852 413.519 547.958 413.519 566.597C413.519 585.235 398.374 600.341 379.774 600.341Z" fill="#213770"/>
<defs>
<clipPath id="clip0">
<rect width="700" height="700" fill="white" transform="translate(1773 489)"/>
</clipPath>
<clipPath id="clip1">
<rect width="500" height="500" fill="white" transform="translate(569 250) rotate(-30)"/>
</clipPath>
</defs>
</svg>
