<svg viewBox="0 0 512 512" fill="none" xmlns="http://www.w3.org/2000/svg">
<path d="M339.391 258.624L511.999 367.744V144.896L339.391 258.624Z" fill="black"/>
<path d="M0 144.896V367.744L172.608 258.624L0 144.896Z" fill="black"/>
<path d="M480.001 80H32.0009C16.0329 80 3.36094 91.904 0.960938 107.232L256.001 275.264L511.041 107.232C508.641 91.904 495.969 80 480.001 80Z" fill="black"/>
<path d="M310.079 277.952L264.799 307.776C262.111 309.536 259.071 310.4 255.999 310.4C252.927 310.4 249.887 309.536 247.199 307.776L201.919 277.92L1.02344 404.992C3.48744 420.192 16.0954 432 31.9994 432H479.999C495.903 432 508.511 420.192 510.975 404.992L310.079 277.952Z" fill="black"/>
</svg>
