<svg viewBox="0 0 512 512" fill="none" xmlns="http://www.w3.org/2000/svg">
<g clip-path="url(#clip0)">
<path d="M407.58 87.677C376.507 34.053 321.315 1.29201 259.94 0.0400117C257.32 -0.0139883 254.683 -0.0139883 252.062 0.0400117C190.688 1.29201 135.496 34.053 104.422 87.677C72.6602 142.489 71.7912 208.329 102.097 263.8L229.06 496.187C229.117 496.29 229.174 496.393 229.233 496.495C234.819 506.204 244.826 512 256.003 512C267.179 512 277.186 506.203 282.771 496.495C282.83 496.393 282.887 496.29 282.944 496.187L409.907 263.8C440.211 208.329 439.342 142.489 407.58 87.677V87.677ZM256.001 232C216.3 232 184.001 199.701 184.001 160C184.001 120.299 216.3 88 256.001 88C295.702 88 328.001 120.299 328.001 160C328.001 199.701 295.703 232 256.001 232Z" fill="black"/>
</g>
<defs>
<clipPath id="clip0">
<rect width="512" height="512" fill="white"/>
</clipPath>
</defs>
</svg>
