<svg width="52" height="20" viewBox="0 0 52 20" fill="none" xmlns="http://www.w3.org/2000/svg">
<path d="M4.88 5.32V9.76H12.656V12.88H4.88V19H0.992V2.2H13.688V5.32H4.88ZM15.8218 6.088H19.5658V19H15.8218V6.088ZM17.6938 4.288C17.0058 4.288 16.4458 4.088 16.0138 3.688C15.5818 3.288 15.3658 2.792 15.3658 2.2C15.3658 1.608 15.5818 1.112 16.0138 0.711999C16.4458 0.311999 17.0058 0.111999 17.6938 0.111999C18.3818 0.111999 18.9418 0.303999 19.3738 0.688C19.8058 1.072 20.0218 1.552 20.0218 2.128C20.0218 2.752 19.8058 3.272 19.3738 3.688C18.9418 4.088 18.3818 4.288 17.6938 4.288Z" fill="#2C2C54"/>
<path d="M27.1925 5.32V9.76H34.9685V12.88H27.1925V19H23.3045V2.2H36.0005V5.32H27.1925ZM44.1845 19.192C42.8245 19.192 41.6005 18.912 40.5125 18.352C39.4405 17.776 38.6005 16.984 37.9925 15.976C37.3845 14.968 37.0805 13.824 37.0805 12.544C37.0805 11.264 37.3845 10.12 37.9925 9.112C38.6005 8.104 39.4405 7.32 40.5125 6.76C41.6005 6.184 42.8245 5.896 44.1845 5.896C45.5445 5.896 46.7605 6.184 47.8325 6.76C48.9045 7.32 49.7445 8.104 50.3525 9.112C50.9605 10.12 51.2645 11.264 51.2645 12.544C51.2645 13.824 50.9605 14.968 50.3525 15.976C49.7445 16.984 48.9045 17.776 47.8325 18.352C46.7605 18.912 45.5445 19.192 44.1845 19.192ZM44.1845 16.12C45.1445 16.12 45.9285 15.8 46.5365 15.16C47.1605 14.504 47.4725 13.632 47.4725 12.544C47.4725 11.456 47.1605 10.592 46.5365 9.952C45.9285 9.296 45.1445 8.968 44.1845 8.968C43.2245 8.968 42.4325 9.296 41.8085 9.952C41.1845 10.592 40.8725 11.456 40.8725 12.544C40.8725 13.632 41.1845 14.504 41.8085 15.16C42.4325 15.8 43.2245 16.12 44.1845 16.12Z" fill="#FF793F"/>
</svg>
