<svg viewBox="0 0 700 700" fill="none" xmlns="http://www.w3.org/2000/svg">
<g clip-path="url(#clip0)">
<path d="M4250.52 -1552.83H-2946.5V727.07H4250.52V-1552.83Z" fill="#F4EDE6"/>
<path d="M330.34 481.6H143.59C113.08 481.6 85.78 461.38 75.1 430.86L62.72 395.47H411.22L398.83 430.86C388.15 461.38 360.85 481.6 330.34 481.6Z" fill="#E57B07" stroke="#070707" stroke-width="4" stroke-linecap="round" stroke-linejoin="round"/>
<path d="M415.41 381.24H58.52C54.6926 381.24 51.59 384.343 51.59 388.17V388.55C51.59 392.377 54.6926 395.48 58.52 395.48H415.41C419.237 395.48 422.34 392.377 422.34 388.55V388.17C422.34 384.343 419.237 381.24 415.41 381.24Z" fill="#E57B07" stroke="#070707" stroke-width="4" stroke-linecap="round" stroke-linejoin="round"/>
<path d="M534.39 407.57H407.25L411.54 395.47H534.39V407.57Z" fill="#E57B07" stroke="#070707" stroke-width="4" stroke-linecap="round" stroke-linejoin="round"/>
<path d="M662.91 387.28H543.85C537.443 387.28 532.25 392.473 532.25 398.88V401.34C532.25 407.746 537.443 412.94 543.85 412.94H662.91C669.316 412.94 674.51 407.746 674.51 401.34V398.88C674.51 392.473 669.316 387.28 662.91 387.28Z" fill="#E57B07" stroke="#070707" stroke-width="4" stroke-linecap="round" stroke-linejoin="round"/>
<path d="M202.87 167.9C151 186.73 170.35 215.39 141.18 257.57C130.75 272.65 132.67 288.83 138.98 295.96C145.63 303.48 151.32 317.9 193.82 316.25C235.91 314.63 251.69 286.86 293.38 280.92C307.99 278.84 324.95 275.08 331.05 261.65C335.42 252.04 332.41 240.74 328.16 231.08C320.01 212.53 307.08 195.67 289.7 185.26C268.29 172.44 242.91 153.37 202.87 167.9Z" fill="#F4EDE6" stroke="#070707" stroke-width="4" stroke-linecap="round" stroke-linejoin="round"/>
<path d="M230.57 264.57C247.459 264.57 261.15 250.879 261.15 233.99C261.15 217.101 247.459 203.41 230.57 203.41C213.681 203.41 199.99 217.101 199.99 233.99C199.99 250.879 213.681 264.57 230.57 264.57Z" fill="#EFAF00" stroke="black" stroke-width="4" stroke-linecap="round" stroke-linejoin="round"/>
<path d="M233.5 324.89V369.81" stroke="#070707" stroke-width="4" stroke-linecap="round" stroke-linejoin="round"/>
<path d="M253.79 307.88V352.81" stroke="#070707" stroke-width="4" stroke-linecap="round" stroke-linejoin="round"/>
<path d="M273.53 312.82V357.74" stroke="#070707" stroke-width="4" stroke-linecap="round" stroke-linejoin="round"/>
<path d="M315.13 314.62C316.82 314.62 318.19 313.25 318.19 311.56C318.19 309.87 316.82 308.5 315.13 308.5C313.44 308.5 312.07 309.87 312.07 311.56C312.07 313.25 313.44 314.62 315.13 314.62Z" fill="#F4EDE6" stroke="#070707" stroke-width="4" stroke-linecap="round" stroke-linejoin="round"/>
<path d="M187.94 354.73C190.823 354.73 193.16 352.393 193.16 349.51C193.16 346.627 190.823 344.29 187.94 344.29C185.057 344.29 182.72 346.627 182.72 349.51C182.72 352.393 185.057 354.73 187.94 354.73Z" fill="#F4EDE6" stroke="#070707" stroke-width="4" stroke-linecap="round" stroke-linejoin="round"/>
</g>
<defs>
<clipPath id="clip0">
<rect width="700" height="700" fill="white"/>
</clipPath>
</defs>
</svg>
