<svg viewBox="0 0 700 700" fill="none" xmlns="http://www.w3.org/2000/svg">
<g clip-path="url(#clip0)">
<path d="M3520.26 -1552.83H-3676.76V727.07H3520.26V-1552.83Z" fill="#F4EDE6"/>
<path d="M347.78 258.21C347.78 258.21 368.06 224.54 400.23 234.76" stroke="#070707" stroke-width="4" stroke-linecap="round" stroke-linejoin="round"/>
<path d="M359.71 243.71C359.71 243.71 372.71 242.88 369.87 249.29C368.09 253.34 351.87 250.7 351.87 250.7C351.87 250.7 352.42 232.9 359.55 233.05C365.24 233.16 359.71 243.71 359.71 243.71Z" stroke="#070707" stroke-width="4" stroke-linecap="round" stroke-linejoin="round"/>
<path d="M369.49 236.84C369.49 236.84 381.36 238.15 377.06 241.95C374.88 243.88 361.47 242.3 361.47 242.3C361.47 242.3 367.47 226.46 373.28 225.97C379.09 225.48 369.49 236.84 369.49 236.84Z" stroke="#070707" stroke-width="4" stroke-linecap="round" stroke-linejoin="round"/>
<path d="M384.89 232.67C384.89 232.67 394.15 235.83 390.94 238.89C389.38 240.37 376.83 234.45 376.83 234.45C376.83 234.45 382.5 224.23 388.01 225.88C391.65 227 384.89 232.67 384.89 232.67Z" stroke="#070707" stroke-width="4" stroke-linecap="round" stroke-linejoin="round"/>
<path d="M389 232.56C389 232.56 409.38 227.03 408.3 235.56C407.53 241.93 389 232.56 389 232.56Z" stroke="#070707" stroke-width="4" stroke-linecap="round" stroke-linejoin="round"/>
<path d="M344 274.73C344 274.73 347.5 236.12 314.9 227.24" stroke="#070707" stroke-width="4" stroke-linecap="round" stroke-linejoin="round"/>
<path d="M338.93 245.47C338.93 245.47 328.38 240.18 329.63 245.61C330.27 248.38 342.25 254.28 342.25 254.28C342.25 254.28 346.78 237.99 342.33 234.49C337.88 230.99 338.93 245.47 338.93 245.47Z" stroke="#070707" stroke-width="4" stroke-linecap="round" stroke-linejoin="round"/>
<path d="M328.75 233.76C328.75 233.76 319.24 231.39 320.05 235.63C320.44 237.69 334.32 239.56 334.32 239.56C334.32 239.56 335.79 228.1 330.26 226.5C326.61 225.44 328.75 233.76 328.75 233.76Z" stroke="#070707" stroke-width="4" stroke-linecap="round" stroke-linejoin="round"/>
<path d="M325.4 231.45C325.4 231.45 311.95 215.94 307.74 223.51C304.56 229.22 325.4 231.45 325.4 231.45Z" stroke="#070707" stroke-width="4" stroke-linecap="round" stroke-linejoin="round"/>
<path d="M342.11 256.25C342.11 256.25 361.87 219.6 336.34 198.47" stroke="#070707" stroke-width="4" stroke-linecap="round" stroke-linejoin="round"/>
<path d="M349 223.77C349 223.77 342.78 215.6 341.47 221.01C340.81 223.77 348.99 233.92 348.99 233.92C348.99 233.92 360.17 222.92 356.31 215.58C353.69 210.68 349 223.77 349 223.77Z" stroke="#070707" stroke-width="4" stroke-linecap="round" stroke-linejoin="round"/>
<path d="M346 210C346 210 338.46 204 337.27 208.19C336.7 210.19 348.43 217.47 348.43 217.47C348.43 217.47 354.93 207.71 350.64 204.04C347.78 201.56 346 210 346 210Z" stroke="#070707" stroke-width="4" stroke-linecap="round" stroke-linejoin="round"/>
<path d="M344 206.51C344 206.51 338.81 187.08 331.59 192.23C326.11 196.11 344 206.51 344 206.51Z" stroke="#070707" stroke-width="4" stroke-linecap="round" stroke-linejoin="round"/>
<path d="M276.27 465.3C274.363 464.805 272.722 463.592 271.689 461.914C270.657 460.237 270.313 458.225 270.73 456.3L314.59 270.1C317.3 259.05 329.36 252.49 340.86 255.82L346.67 257.51C358.17 260.84 364.29 272.67 359.99 283.27L286.16 460.8C285.341 462.625 283.885 464.089 282.065 464.917C280.244 465.745 278.184 465.882 276.27 465.3Z" fill="#E57B07" stroke="#070707" stroke-width="4" stroke-linecap="round" stroke-linejoin="round"/>
<path d="M416.18 288.27C416.18 288.27 436.46 254.61 468.62 264.82" stroke="#070707" stroke-width="4" stroke-linecap="round" stroke-linejoin="round"/>
<path d="M428.1 273.77C428.1 273.77 441.1 272.94 438.26 279.36C436.48 283.36 420.26 280.77 420.26 280.77C420.26 280.77 420.8 262.97 427.93 263.11C433.63 263.23 428.1 273.77 428.1 273.77Z" stroke="#070707" stroke-width="4" stroke-linecap="round" stroke-linejoin="round"/>
<path d="M437.89 266.9C437.89 266.9 449.75 268.22 445.45 272.01C443.27 273.94 429.87 272.36 429.87 272.36C429.87 272.36 435.87 256.52 441.67 256.03C447.47 255.54 437.89 266.9 437.89 266.9Z" stroke="#070707" stroke-width="4" stroke-linecap="round" stroke-linejoin="round"/>
<path d="M453.29 262.73C453.29 262.73 462.54 265.89 459.29 268.95C457.74 270.44 445.19 264.51 445.19 264.51C445.19 264.51 450.85 254.29 456.36 255.94C460.05 257 453.29 262.73 453.29 262.73Z" stroke="#070707" stroke-width="4" stroke-linecap="round" stroke-linejoin="round"/>
<path d="M457.44 262.63C457.44 262.63 477.81 257.09 476.74 265.63C475.93 272 457.44 262.63 457.44 262.63Z" stroke="#070707" stroke-width="4" stroke-linecap="round" stroke-linejoin="round"/>
<path d="M412.37 304.8C412.37 304.8 415.88 266.18 383.27 257.31" stroke="#070707" stroke-width="4" stroke-linecap="round" stroke-linejoin="round"/>
<path d="M407.32 275.54C407.32 275.54 396.77 270.24 398.03 275.68C398.67 278.44 410.65 284.34 410.65 284.34C410.65 284.34 415.17 268.05 410.73 264.56C406.29 261.07 407.32 275.54 407.32 275.54Z" stroke="#070707" stroke-width="4" stroke-linecap="round" stroke-linejoin="round"/>
<path d="M397.15 263.83C397.15 263.83 387.64 261.46 388.44 265.7C388.83 267.76 402.71 269.62 402.71 269.62C402.71 269.62 404.18 258.17 398.65 256.56C395 255.5 397.15 263.83 397.15 263.83Z" stroke="#070707" stroke-width="4" stroke-linecap="round" stroke-linejoin="round"/>
<path d="M393.8 261.51C393.8 261.51 380.34 246 376.13 253.57C373 259.28 393.8 261.51 393.8 261.51Z" stroke="#070707" stroke-width="4" stroke-linecap="round" stroke-linejoin="round"/>
<path d="M410.5 286.31C410.5 286.31 430.26 249.67 404.74 228.54" stroke="#070707" stroke-width="4" stroke-linecap="round" stroke-linejoin="round"/>
<path d="M417.35 253.83C417.35 253.83 411.13 245.66 409.82 251.08C409.15 253.83 417.34 263.99 417.34 263.99C417.34 263.99 428.51 252.99 424.65 245.64C422.09 240.74 417.35 253.83 417.35 253.83Z" stroke="#070707" stroke-width="4" stroke-linecap="round" stroke-linejoin="round"/>
<path d="M414.36 240C414.36 240 406.82 234 405.64 238.19C405.06 240.19 416.79 247.48 416.79 247.48C416.79 247.48 423.29 237.71 419 234.04C416.17 231.62 414.36 240 414.36 240Z" stroke="#070707" stroke-width="4" stroke-linecap="round" stroke-linejoin="round"/>
<path d="M412.37 236.57C412.37 236.57 407.18 217.14 399.96 222.29C394.51 226.18 412.37 236.57 412.37 236.57Z" stroke="#070707" stroke-width="4" stroke-linecap="round" stroke-linejoin="round"/>
<path d="M344.66 495.36C342.752 494.867 341.11 493.654 340.079 491.976C339.048 490.297 338.707 488.284 339.13 486.36L383 300.19C385.71 289.14 397.77 282.58 409.27 285.92L415.09 287.61C426.59 290.94 432.7 302.77 428.4 313.36L354.57 490.86C353.752 492.691 352.293 494.159 350.468 494.988C348.642 495.817 346.576 495.949 344.66 495.36V495.36Z" fill="#E57B07" stroke="#070707" stroke-width="4" stroke-linecap="round" stroke-linejoin="round"/>
<path d="M172.905 257.74L168.214 260.249L309.678 524.744L314.369 522.235L172.905 257.74Z" fill="#F4EDE6" stroke="#070707" stroke-width="4" stroke-linecap="round" stroke-linejoin="round"/>
<path d="M180.996 253.417L176.305 255.926L317.77 520.421L322.461 517.912L180.996 253.417Z" fill="#F4EDE6" stroke="#070707" stroke-width="4" stroke-linecap="round" stroke-linejoin="round"/>
<path d="M197.178 244.754L192.487 247.264L333.952 511.759L338.643 509.25L197.178 244.754Z" fill="#F4EDE6" stroke="#070707" stroke-width="4" stroke-linecap="round" stroke-linejoin="round"/>
<path d="M213.362 236.097L208.67 238.606L350.135 503.102L354.826 500.592L213.362 236.097Z" fill="#F4EDE6" stroke="#070707" stroke-width="4" stroke-linecap="round" stroke-linejoin="round"/>
<path d="M189.088 249.083L184.397 251.592L325.861 516.087L330.553 513.578L189.088 249.083Z" fill="#F4EDE6" stroke="#070707" stroke-width="4" stroke-linecap="round" stroke-linejoin="round"/>
<path d="M205.27 240.421L200.579 242.93L342.043 507.425L346.735 504.916L205.27 240.421Z" fill="#F4EDE6" stroke="#070707" stroke-width="4" stroke-linecap="round" stroke-linejoin="round"/>
<path d="M221.467 231.778L216.776 234.287L358.24 498.782L362.931 496.273L221.467 231.778Z" fill="#F4EDE6" stroke="#070707" stroke-width="4" stroke-linecap="round" stroke-linejoin="round"/>
<path d="M233.604 251.241L228.913 253.75L370.378 518.245L375.069 515.736L233.604 251.241Z" fill="#F4EDE6" stroke="#070707" stroke-width="4" stroke-linecap="round" stroke-linejoin="round"/>
<path d="M241.686 246.917L236.995 249.426L378.459 513.921L383.151 511.412L241.686 246.917Z" fill="#F4EDE6" stroke="#070707" stroke-width="4" stroke-linecap="round" stroke-linejoin="round"/>
<path d="M249.782 242.592L245.091 245.101L386.556 509.597L391.247 507.087L249.782 242.592Z" fill="#F4EDE6" stroke="#070707" stroke-width="4" stroke-linecap="round" stroke-linejoin="round"/>
<path d="M257.883 238.264L253.191 240.773L394.656 505.268L399.347 502.759L257.883 238.264Z" fill="#F4EDE6" stroke="#070707" stroke-width="4" stroke-linecap="round" stroke-linejoin="round"/>
<path d="M174.1 302.36H483.3V531C483.3 542.484 478.738 553.497 470.618 561.618C462.497 569.738 451.484 574.3 440 574.3H217.4C205.916 574.3 194.902 569.738 186.782 561.618C178.662 553.497 174.1 542.484 174.1 531V302.36Z" fill="#F4EDE6" stroke="#070707" stroke-width="4" stroke-linecap="round" stroke-linejoin="round"/>
<path d="M483.3 325H519.37L558.17 300.88C559.191 300.09 559.93 298.993 560.278 297.75C560.626 296.507 560.563 295.185 560.1 293.98V293.98C558.45 289.81 552.77 288.47 549.1 291.38L514.3 312.29H483.3V325Z" fill="#F4EDE6" stroke="#070707" stroke-width="4" stroke-linecap="round" stroke-linejoin="round"/>
<path d="M174.08 325H138L99.1999 300.85C98.1788 300.06 97.4396 298.963 97.0919 297.72C96.7442 296.477 96.8066 295.155 97.2699 293.95V293.95C98.9199 289.78 104.61 288.44 108.27 291.35L143 312.26H174L174.08 325Z" fill="#F4EDE6" stroke="#070707" stroke-width="4" stroke-linecap="round" stroke-linejoin="round"/>
<path d="M483.3 234.8L195.63 121.44C217.34 107.23 282.27 115.72 353.07 143.61C423.87 171.5 477.12 209.6 483.3 234.8Z" fill="#F4EDE6" stroke="#070707" stroke-width="4" stroke-linecap="round" stroke-linejoin="round"/>
<path d="M386.82 127.21L342.72 109.83C338.45 108.15 333.96 110.95 334.09 115.23L334.74 136.49L374.47 152.15L389.47 137.04C392.46 134 391.09 128.89 386.82 127.21Z" fill="#F4EDE6" stroke="#070707" stroke-width="4" stroke-linecap="round" stroke-linejoin="round"/>
<path d="M627.86 322.46H622.27C622.731 323.393 622.974 324.419 622.98 325.46V330.57C622.98 331.804 622.49 332.988 621.619 333.862C620.747 334.735 619.564 335.227 618.33 335.23H590.06C589.448 335.23 588.842 335.109 588.277 334.875C587.711 334.641 587.198 334.298 586.765 333.865C586.332 333.432 585.989 332.919 585.755 332.353C585.521 331.788 585.4 331.182 585.4 330.57V325.5C585.406 324.459 585.649 323.433 586.11 322.5H580.28V312.73C580.279 311.83 580.455 310.938 580.799 310.106C581.142 309.273 581.647 308.517 582.283 307.88C582.919 307.243 583.675 306.737 584.506 306.392C585.338 306.048 586.23 305.87 587.13 305.87H621C621.901 305.869 622.794 306.045 623.627 306.39C624.46 306.734 625.216 307.239 625.854 307.876C626.491 308.514 626.996 309.27 627.341 310.103C627.685 310.936 627.861 311.829 627.86 312.73V322.46Z" fill="#F4EDE6" stroke="#070707" stroke-width="4" stroke-linecap="round" stroke-linejoin="round"/>
<path d="M650.18 454.11L644.33 540.18C644.133 543.795 642.57 547.201 639.959 549.709C637.347 552.217 633.88 553.64 630.26 553.69H577.88C574.259 553.642 570.791 552.22 568.179 549.712C565.567 547.203 564.005 543.796 563.81 540.18L558 454.11H650.18Z" fill="#F4EDE6" stroke="#070707" stroke-width="4" stroke-linecap="round" stroke-linejoin="round"/>
<path d="M660.83 429.4L652.51 548.26C652.192 552.533 650.273 556.529 647.136 559.447C643.998 562.365 639.875 563.992 635.59 564H572.59C568.299 563.991 564.17 562.359 561.031 559.432C557.893 556.506 555.978 552.5 555.67 548.22L547.31 429.4C546.974 424.67 547.858 419.932 549.879 415.642C551.9 411.352 554.989 407.653 558.85 404.9C563.058 401.978 566.497 398.082 568.875 393.545C571.254 389.008 572.5 383.963 572.51 378.84L572.15 334.17C572.082 332.657 572.322 331.146 572.854 329.729C573.387 328.311 574.201 327.016 575.248 325.922C576.294 324.827 577.552 323.956 578.944 323.361C580.337 322.766 581.836 322.46 583.35 322.46H624.78C626.296 322.457 627.797 322.762 629.192 323.356C630.587 323.949 631.846 324.82 632.895 325.914C633.944 327.009 634.76 328.305 635.294 329.724C635.827 331.143 636.068 332.656 636 334.17L635.63 378.84C635.645 383.963 636.895 389.007 639.275 393.543C641.655 398.08 645.093 401.976 649.3 404.9C653.158 407.656 656.244 411.355 658.263 415.645C660.281 419.935 661.165 424.671 660.83 429.4V429.4Z" fill="#E57B07" stroke="#070707" stroke-width="4" stroke-linecap="round" stroke-linejoin="round"/>
<path d="M633.18 501.53C632.29 506.53 619.55 512.72 603.98 512.72C588.41 512.72 575.67 506.48 574.77 501.53L574.89 438.96C576.49 434.22 588.89 428.25 603.98 428.25C619.07 428.25 631.47 434.25 633.07 438.96L633.18 501.53Z" fill="#F4EDE6" stroke="#070707" stroke-width="4" stroke-linecap="round" stroke-linejoin="round"/>
<path d="M85.09 405.72V407.86C85.09 409.036 85.5564 410.164 86.3869 410.996C87.2174 411.828 88.3441 412.297 89.52 412.3V412.3V419C89.5226 420.221 90.0095 421.391 90.8737 422.253C91.738 423.116 92.909 423.6 94.13 423.6H103C103.605 423.601 104.204 423.483 104.763 423.253C105.323 423.022 105.831 422.684 106.259 422.256C106.687 421.829 107.027 421.321 107.259 420.763C107.491 420.204 107.61 419.605 107.61 419V412.3C108.193 412.3 108.769 412.185 109.308 411.962C109.846 411.739 110.335 411.411 110.746 410.999C111.157 410.587 111.484 410.097 111.706 409.558C111.928 409.02 112.041 408.443 112.04 407.86V405.72C112.04 404.545 111.573 403.418 110.742 402.588C109.912 401.757 108.785 401.29 107.61 401.29H89.52C88.3459 401.293 87.2206 401.76 86.3904 402.59C85.5602 403.421 85.0926 404.546 85.09 405.72Z" fill="#F4EDE6" stroke="#070707" stroke-width="4" stroke-linecap="round" stroke-linejoin="round"/>
<path d="M54.58 520.08C54.58 531.45 61.46 548.76 67.75 558.94C68.4603 560.095 69.4545 561.048 70.6378 561.71C71.8211 562.372 73.1542 562.719 74.51 562.72H119.17C120.543 562.715 121.892 562.356 123.087 561.678C124.281 561 125.281 560.026 125.99 558.85C132.26 548.37 139.14 529.85 139.14 518.48C139.14 495.68 128.78 478.74 111.07 471.88V427L120.69 412.28H82.69V471.86C64.94 478.74 54.58 497.29 54.58 520.08Z" fill="#F4EDE6" stroke="#070707" stroke-width="4" stroke-linecap="round" stroke-linejoin="round"/>
<path d="M82.6599 423.64H69.9999C67.9977 423.642 66.0255 424.126 64.25 425.052C62.4744 425.977 60.9478 427.316 59.7992 428.956C58.6507 430.596 57.9139 432.489 57.6511 434.474C57.3884 436.459 57.6075 438.478 58.2899 440.36L71.9399 478" stroke="#070707" stroke-width="4" stroke-linecap="round" stroke-linejoin="round"/>
<path d="M61.2699 520.42C61.2699 529.99 67.0699 544.56 72.3599 553.13C72.9578 554.102 73.7946 554.904 74.7907 555.461C75.7868 556.018 76.9088 556.31 78.0499 556.31H115.64C116.797 556.307 117.933 556.006 118.939 555.435C119.944 554.863 120.785 554.042 121.38 553.05C126.66 544.23 132.45 528.63 132.45 519.05C132.513 513.273 131.607 507.527 129.77 502.05H64.2999C62.2355 507.952 61.2103 514.168 61.2699 520.42V520.42Z" fill="#F4EDE6" stroke="#070707" stroke-width="4" stroke-linecap="round" stroke-linejoin="round"/>
<path d="M558.46 450.07V558.3C558.46 558.986 558.325 559.666 558.062 560.3C557.799 560.934 557.413 561.51 556.927 561.995C556.442 562.479 555.865 562.864 555.231 563.126C554.596 563.387 553.916 563.521 553.23 563.52H512C511.314 563.521 510.635 563.387 510.001 563.125C509.367 562.863 508.791 562.479 508.306 561.994C507.821 561.509 507.436 560.933 507.175 560.299C506.913 559.665 506.779 558.986 506.78 558.3V450.07C506.775 446.434 508.037 442.911 510.349 440.105C512.662 437.3 515.88 435.389 519.45 434.7V408.88H545.79V434.7C549.359 435.39 552.576 437.302 554.888 440.107C557.2 442.912 558.463 446.435 558.46 450.07V450.07Z" fill="#F4EDE6" stroke="#070707" stroke-width="4" stroke-linecap="round" stroke-linejoin="round"/>
<path d="M550.87 465.63V551.28C550.87 554.42 548.64 556.96 545.87 556.96H519.34C516.59 556.96 514.34 554.42 514.34 551.28V465.63H550.87Z" fill="#EFAF00" stroke="black" stroke-width="4" stroke-linecap="round" stroke-linejoin="round"/>
<path d="M549.28 404.84H515.96C514.634 404.84 513.56 405.914 513.56 407.24V410.82C513.56 412.145 514.634 413.22 515.96 413.22H549.28C550.605 413.22 551.68 412.145 551.68 410.82V407.24C551.68 405.914 550.605 404.84 549.28 404.84Z" fill="#F4EDE6" stroke="#070707" stroke-width="4" stroke-linecap="round" stroke-linejoin="round"/>
</g>
<defs>
<clipPath id="clip0">
<rect width="700" height="700" fill="white"/>
</clipPath>
</defs>
</svg>
