<svg viewBox="0 0 700 700" fill="none" xmlns="http://www.w3.org/2000/svg">
<g clip-path="url(#clip0)">
<path d="M5719.85 -1552.83H-1477.17V727.07H5719.85V-1552.83Z" fill="#F4EDE6"/>
<path d="M316.09 528.96C471.508 528.96 597.5 515.264 597.5 498.37C597.5 481.476 471.508 467.78 316.09 467.78C160.671 467.78 34.6799 481.476 34.6799 498.37C34.6799 515.264 160.671 528.96 316.09 528.96Z" fill="#1C0E0C"/>
<path d="M341.38 555.1H369.6C373.808 555.1 377.22 551.688 377.22 547.48V545.57C377.22 541.362 373.808 537.95 369.6 537.95H341.38C337.172 537.95 333.76 541.362 333.76 545.57V547.48C333.76 551.688 337.172 555.1 341.38 555.1Z" fill="#F4EDE6" stroke="#070707" stroke-width="4" stroke-linecap="round" stroke-linejoin="round"/>
<path d="M623.28 582.15H388.51C380.185 582.15 372.201 578.843 366.314 572.956C360.427 567.069 357.12 559.085 357.12 550.76V542.88C357.12 534.555 360.427 526.571 366.314 520.684C372.201 514.797 380.185 511.49 388.51 511.49H623.28V582.15Z" fill="#F4EDE6" stroke="#070707" stroke-width="4" stroke-linecap="round" stroke-linejoin="round"/>
<path d="M623.27 581.93C638.624 581.93 651.07 566.161 651.07 546.71C651.07 527.259 638.624 511.49 623.27 511.49C607.917 511.49 595.47 527.259 595.47 546.71C595.47 566.161 607.917 581.93 623.27 581.93Z" fill="#F4EDE6" stroke="#070707" stroke-width="4" stroke-linecap="round" stroke-linejoin="round"/>
<path d="M629.47 555.1H657.69C661.898 555.1 665.31 551.688 665.31 547.48V545.57C665.31 541.362 661.898 537.95 657.69 537.95H629.47C625.262 537.95 621.85 541.362 621.85 545.57V547.48C621.85 551.688 625.262 555.1 629.47 555.1Z" fill="#F4EDE6" stroke="#070707" stroke-width="4" stroke-linecap="round" stroke-linejoin="round"/>
<path d="M320.19 456.76C320.395 456.859 320.565 457.018 320.678 457.216C320.791 457.414 320.842 457.641 320.824 457.868C320.805 458.095 320.719 458.311 320.575 458.488C320.432 458.665 320.238 458.795 320.02 458.86C282.48 469.59 236.56 475.91 187.02 475.91C137.24 475.91 91.15 469.54 53.53 458.73C53.3302 458.665 53.1524 458.546 53.0167 458.386C52.8809 458.225 52.7924 458.031 52.7613 457.823C52.7301 457.615 52.7575 457.403 52.8403 457.21C52.9231 457.017 53.058 456.851 53.23 456.73C65.36 448.6 139.92 446.15 187.02 446.15C233.13 446.13 306.5 450.52 320.19 456.76Z" fill="#F4EDE6" stroke="#070707" stroke-width="4" stroke-linecap="round" stroke-linejoin="round"/>
<path d="M216.16 449.19C216.16 449.19 235.79 446.08 230.78 427.11" stroke="#070707" stroke-width="4" stroke-linecap="round" stroke-linejoin="round"/>
<path d="M220.005 463.433C223.943 459.131 223.648 452.451 219.346 448.514C215.044 444.576 208.364 444.871 204.427 449.173C200.489 453.475 200.784 460.154 205.086 464.092C209.388 468.03 216.067 467.735 220.005 463.433Z" fill="#EA631F" stroke="#070707" stroke-width="4" stroke-linecap="round" stroke-linejoin="round"/>
<path d="M241.92 449.25C241.92 449.25 232.03 444.66 231.5 435.39Z" fill="#F4EDE6"/>
<path d="M241.92 449.25C241.92 449.25 232.03 444.66 231.5 435.39" stroke="#070707" stroke-width="4" stroke-linecap="round" stroke-linejoin="round"/>
<path d="M249.107 462.71C253.023 459.916 253.933 454.477 251.14 450.561C248.347 446.644 242.907 445.734 238.991 448.528C235.075 451.321 234.165 456.76 236.958 460.677C239.751 464.593 245.191 465.503 249.107 462.71Z" fill="#EA631F" stroke="#070707" stroke-width="4" stroke-linecap="round" stroke-linejoin="round"/>
<path d="M131.72 479.46C131.72 479.46 151.35 476.34 146.35 457.37Z" fill="#F4EDE6"/>
<path d="M131.72 479.46C131.72 479.46 151.35 476.34 146.35 457.37" stroke="#070707" stroke-width="4" stroke-linecap="round" stroke-linejoin="round"/>
<path d="M131.929 496.276C137.291 493.983 139.78 487.777 137.487 482.415C135.194 477.052 128.988 474.564 123.625 476.857C118.263 479.149 115.774 485.355 118.067 490.718C120.36 496.08 126.566 498.569 131.929 496.276Z" fill="#F4EDE6" stroke="#070707" stroke-width="4" stroke-linecap="round" stroke-linejoin="round"/>
<path d="M157.48 479.52C157.48 479.52 147.6 474.92 147.07 465.65Z" fill="#F4EDE6"/>
<path d="M157.48 479.52C157.48 479.52 147.6 474.92 147.07 465.65" stroke="#070707" stroke-width="4" stroke-linecap="round" stroke-linejoin="round"/>
<path d="M162.266 494.172C166.844 492.694 169.356 487.784 167.878 483.207C166.399 478.629 161.49 476.117 156.912 477.596C152.335 479.074 149.822 483.984 151.301 488.561C152.779 493.139 157.689 495.651 162.266 494.172Z" fill="#F4EDE6" stroke="#070707" stroke-width="4" stroke-linecap="round" stroke-linejoin="round"/>
<path d="M196.7 476.37C196.7 476.37 216.05 482.11 224.33 464.37Z" fill="#F4EDE6"/>
<path d="M196.7 476.37C196.7 476.37 216.05 482.11 224.33 464.37" stroke="#070707" stroke-width="4" stroke-linecap="round" stroke-linejoin="round"/>
<path d="M196.984 483.772C201.179 479.721 201.296 473.036 197.244 468.84C193.193 464.645 186.508 464.528 182.313 468.58C178.117 472.631 178.001 479.316 182.052 483.512C186.103 487.707 192.788 487.824 196.984 483.772Z" fill="#EA631F" stroke="#070707" stroke-width="4" stroke-linecap="round" stroke-linejoin="round"/>
<path d="M227.1 491.45C227.1 491.45 246.44 497.19 254.73 479.45Z" fill="#F4EDE6"/>
<path d="M227.1 491.45C227.1 491.45 246.44 497.19 254.73 479.45" stroke="#070707" stroke-width="4" stroke-linecap="round" stroke-linejoin="round"/>
<path d="M230.588 491.87C230.928 486.047 226.483 481.052 220.661 480.712C214.839 480.373 209.844 484.817 209.504 490.639C209.164 496.461 213.609 501.457 219.431 501.797C225.253 502.136 230.248 497.692 230.588 491.87Z" fill="#F4EDE6" stroke="#070707" stroke-width="4" stroke-linecap="round" stroke-linejoin="round"/>
<path d="M280.426 487.873C282.179 482.311 279.091 476.38 273.528 474.628C267.966 472.875 262.035 475.963 260.283 481.526C258.53 487.088 261.618 493.018 267.181 494.771C272.743 496.524 278.673 493.436 280.426 487.873Z" fill="#F4EDE6" stroke="#070707" stroke-width="4" stroke-linecap="round" stroke-linejoin="round"/>
<path d="M233.69 466.37C233.69 466.37 224.94 459.87 226.3 450.68Z" fill="#F4EDE6"/>
<path d="M233.69 466.37C233.69 466.37 224.94 459.87 226.3 450.68" stroke="#070707" stroke-width="4" stroke-linecap="round" stroke-linejoin="round"/>
<path d="M235.464 481.688C240.243 481.142 243.675 476.825 243.128 472.045C242.582 467.266 238.265 463.834 233.486 464.381C228.706 464.927 225.275 469.244 225.821 474.023C226.367 478.803 230.684 482.234 235.464 481.688Z" fill="#EA631F" stroke="#070707" stroke-width="4" stroke-linecap="round" stroke-linejoin="round"/>
<path d="M284.61 465C284.61 465 273.83 463.4 270.68 454.67Z" fill="#F4EDE6"/>
<path d="M284.61 465C284.61 465 273.83 463.4 270.68 454.67" stroke="#070707" stroke-width="4" stroke-linecap="round" stroke-linejoin="round"/>
<path d="M288.46 479.21C293.27 479.21 297.17 475.31 297.17 470.5C297.17 465.69 293.27 461.79 288.46 461.79C283.65 461.79 279.75 465.69 279.75 470.5C279.75 475.31 283.65 479.21 288.46 479.21Z" fill="#EA631F" stroke="#070707" stroke-width="4" stroke-linecap="round" stroke-linejoin="round"/>
<path d="M112.84 459.87C112.84 459.87 103.1 453.24 104.15 443.27Z" fill="#F4EDE6"/>
<path d="M112.84 459.87C112.84 459.87 103.1 453.24 104.15 443.27" stroke="#070707" stroke-width="4" stroke-linecap="round" stroke-linejoin="round"/>
<path d="M118.761 475.132C123.258 472.515 124.781 466.749 122.164 462.252C119.547 457.756 113.781 456.232 109.284 458.849C104.788 461.466 103.264 467.233 105.881 471.729C108.498 476.226 114.265 477.749 118.761 475.132Z" fill="#EA631F" stroke="#070707" stroke-width="4" stroke-linecap="round" stroke-linejoin="round"/>
<path d="M263.184 470.013C263.751 466.401 261.283 463.013 257.671 462.447C254.059 461.88 250.671 464.348 250.104 467.96C249.537 471.572 252.006 474.96 255.618 475.526C259.23 476.093 262.617 473.625 263.184 470.013Z" fill="#EA631F" stroke="#070707" stroke-width="4" stroke-linecap="round" stroke-linejoin="round"/>
<path d="M137.026 470.372C140.385 468.93 141.94 465.037 140.498 461.677C139.056 458.317 135.163 456.763 131.804 458.205C128.444 459.647 126.889 463.54 128.331 466.899C129.773 470.259 133.666 471.814 137.026 470.372Z" fill="#EA631F" stroke="#070707" stroke-width="4" stroke-linecap="round" stroke-linejoin="round"/>
<path d="M90.9779 473.226C93.8307 469.095 92.7947 463.433 88.6639 460.58C84.533 457.728 78.8715 458.764 76.0186 462.894C73.1658 467.025 74.2018 472.687 78.3326 475.54C82.4635 478.393 88.125 477.357 90.9779 473.226Z" fill="#EA631F" stroke="#070707" stroke-width="4" stroke-linecap="round" stroke-linejoin="round"/>
<path d="M192.56 493.86C192.273 495.136 192.371 496.469 192.84 497.69C193.31 498.91 194.131 499.965 195.199 500.719C196.268 501.474 197.536 501.895 198.843 501.93C200.151 501.965 201.439 501.611 202.546 500.914C203.653 500.217 204.529 499.208 205.062 498.014C205.596 496.819 205.764 495.494 205.545 494.204C205.326 492.915 204.73 491.719 203.832 490.768C202.934 489.816 201.775 489.153 200.5 488.86C199.65 488.666 198.771 488.642 197.912 488.789C197.053 488.935 196.231 489.249 195.493 489.714C194.756 490.178 194.117 490.783 193.614 491.495C193.111 492.206 192.752 493.01 192.56 493.86V493.86Z" fill="#F4EDE6" stroke="#070707" stroke-width="4" stroke-linecap="round" stroke-linejoin="round"/>
<path d="M173.342 465.845C174.785 461.256 172.234 456.366 167.645 454.924C163.056 453.481 158.167 456.032 156.724 460.621C155.282 465.21 157.832 470.099 162.421 471.542C167.01 472.984 171.9 470.434 173.342 465.845Z" fill="#EA631F" stroke="#070707" stroke-width="4" stroke-linecap="round" stroke-linejoin="round"/>
<path d="M101.592 491.297C106.371 490.75 109.803 486.433 109.257 481.654C108.71 476.875 104.393 473.443 99.6139 473.989C94.8346 474.536 91.403 478.853 91.9492 483.632C92.4954 488.411 96.8126 491.843 101.592 491.297Z" fill="#F4EDE6" stroke="#070707" stroke-width="4" stroke-linecap="round" stroke-linejoin="round"/>
<path d="M186.353 500.993C187.796 496.404 185.245 491.515 180.656 490.072C176.067 488.63 171.177 491.181 169.735 495.77C168.292 500.359 170.843 505.248 175.432 506.691C180.021 508.133 184.91 505.582 186.353 500.993Z" fill="#F4EDE6" stroke="#070707" stroke-width="4" stroke-linecap="round" stroke-linejoin="round"/>
<path opacity="0.5" d="M320.84 458.69C320.07 488.48 261.3 511.5 187 511.5C112.7 511.5 53.8899 488 53.1199 458.16C91.1199 469.32 136.34 475.39 186.98 475.39C237.62 475.39 282.87 469.84 320.84 458.69Z" fill="#F4EDE6" stroke="#070707" stroke-width="4" stroke-linecap="round" stroke-linejoin="round"/>
<path d="M320.84 458.69C320.07 488.48 261.3 511.5 187 511.5C112.7 511.5 53.8899 488 53.1199 458.16C91.1199 469.32 136.34 475.39 186.98 475.39C237.62 475.39 282.87 469.84 320.84 458.69Z" fill="#F4EDE6" stroke="#070707" stroke-width="4" stroke-linecap="round" stroke-linejoin="round"/>
<path d="M286.85 239.64H533.57C540.604 239.64 547.349 242.434 552.323 247.408C557.296 252.381 560.09 259.126 560.09 266.16V351.79H260.33V266.16C260.33 259.126 263.124 252.381 268.098 247.408C273.071 242.434 279.817 239.64 286.85 239.64V239.64Z" fill="#F4EDE6" stroke="#070707" stroke-width="4" stroke-linecap="round" stroke-linejoin="round"/>
<path d="M509.1 194.37V239.64H316.1V194.37C316.099 191.593 316.645 188.844 317.707 186.279C318.769 183.713 320.326 181.382 322.289 179.419C324.252 177.456 326.583 175.898 329.149 174.837C331.714 173.775 334.464 173.229 337.24 173.23H488C493.283 173.243 498.37 175.235 502.257 178.813C506.144 182.391 508.55 187.296 509 192.56C509.07 193.16 509.1 193.76 509.1 194.37Z" fill="#F4EDE6" stroke="#070707" stroke-width="4" stroke-linecap="round" stroke-linejoin="round"/>
<path d="M547 242.77V271.62C547 276.444 545.084 281.071 541.672 284.482C538.261 287.894 533.634 289.81 528.81 289.81C523.986 289.81 519.359 287.894 515.948 284.482C512.537 281.071 510.62 276.444 510.62 271.62V268.22C510.702 265.739 510.283 263.268 509.391 260.952C508.498 258.636 507.148 256.524 505.422 254.74C503.696 252.956 501.629 251.538 499.344 250.569C497.059 249.601 494.602 249.102 492.12 249.102C489.638 249.102 487.181 249.601 484.896 250.569C482.611 251.538 480.544 252.956 478.818 254.74C477.092 256.524 475.743 258.636 474.85 260.952C473.957 263.268 473.538 265.739 473.62 268.22V308.87C473.499 314.435 471.204 319.732 467.225 323.625C463.247 327.518 457.902 329.699 452.335 329.699C446.768 329.699 441.423 327.518 437.445 323.625C433.466 319.732 431.171 314.435 431.05 308.87V282.87C431.05 279.321 429.64 275.918 427.131 273.409C424.622 270.9 421.219 269.49 417.67 269.49H417.26C413.812 269.49 410.506 270.86 408.068 273.298C405.63 275.736 404.26 279.042 404.26 282.49V296.58C404.26 300.956 402.522 305.153 399.427 308.247C396.333 311.342 392.136 313.08 387.76 313.08C383.384 313.08 379.187 311.342 376.093 308.247C372.998 305.153 371.26 300.956 371.26 296.58V262.59C371.26 255.23 365.26 250.27 357.91 250.27H357.51C350.36 250.27 344.57 255.05 344.57 262.2V288C344.57 289.774 344.221 291.53 343.541 293.169C342.862 294.807 341.867 296.296 340.612 297.549C339.358 298.803 337.868 299.797 336.229 300.475C334.59 301.153 332.834 301.501 331.06 301.5H330.66C328.939 301.5 327.235 301.161 325.645 300.502C324.055 299.843 322.61 298.877 321.393 297.66C320.177 296.442 319.212 294.997 318.554 293.406C317.897 291.816 317.559 290.111 317.56 288.39V283C317.56 277.903 315.535 273.014 311.931 269.409C308.326 265.805 303.438 263.78 298.34 263.78C293.243 263.78 288.354 265.805 284.749 269.409C281.145 273.014 279.12 277.903 279.12 283V298.26C279.12 300.534 278.672 302.786 277.801 304.887C276.931 306.987 275.655 308.896 274.047 310.504C272.438 312.111 270.529 313.386 268.427 314.255C266.326 315.125 264.074 315.571 261.8 315.57V264.25C261.803 258.13 264.235 252.261 268.563 247.933C272.891 243.605 278.76 241.173 284.88 241.17H538.55C541.442 241.169 544.309 241.712 547 242.77V242.77Z" fill="#EFAF00" stroke="black" stroke-width="4" stroke-linecap="round" stroke-linejoin="round"/>
<path d="M345.76 332.94C345.76 332.94 366.3 329.55 363 310.21Z" fill="#F4EDE6"/>
<path d="M345.76 332.94C345.76 332.94 366.3 329.55 363 310.21" stroke="#070707" stroke-width="4" stroke-linecap="round" stroke-linejoin="round"/>
<path d="M351.737 340.217C352.042 334.393 347.569 329.424 341.744 329.119C335.92 328.814 330.951 333.288 330.646 339.112C330.341 344.936 334.815 349.905 340.639 350.21C346.463 350.515 351.432 346.041 351.737 340.217Z" fill="#EA631F" stroke="#070707" stroke-width="4" stroke-linecap="round" stroke-linejoin="round"/>
<path d="M371.41 335.29C371.41 335.29 361.98 329.84 362.27 320.56Z" fill="#F4EDE6"/>
<path d="M371.41 335.29C371.41 335.29 361.98 329.84 362.27 320.56" stroke="#070707" stroke-width="4" stroke-linecap="round" stroke-linejoin="round"/>
<path d="M377.952 348.922C381.899 346.171 382.869 340.742 380.118 336.796C377.368 332.849 371.939 331.879 367.993 334.629C364.046 337.379 363.076 342.808 365.826 346.755C368.576 350.702 374.005 351.672 377.952 348.922Z" fill="#EA631F" stroke="#070707" stroke-width="4" stroke-linecap="round" stroke-linejoin="round"/>
<path d="M558.61 315C558.026 315 557.448 314.885 556.909 314.661C556.369 314.437 555.879 314.109 555.467 313.696C555.055 313.283 554.728 312.792 554.505 312.252C554.283 311.712 554.169 311.134 554.17 310.55V305.34C554.142 304.739 554.235 304.138 554.446 303.573C554.656 303.009 554.979 302.494 555.395 302.058C555.81 301.622 556.31 301.275 556.864 301.038C557.417 300.801 558.013 300.679 558.615 300.679C559.217 300.679 559.813 300.801 560.367 301.038C560.92 301.275 561.42 301.622 561.835 302.058C562.251 302.494 562.574 303.009 562.784 303.573C562.995 304.138 563.089 304.739 563.06 305.34V310.55C563.06 311.73 562.591 312.862 561.757 313.697C560.922 314.531 559.79 315 558.61 315Z" fill="#F4EDE6" stroke="#070707" stroke-width="4" stroke-linecap="round" stroke-linejoin="round"/>
<path d="M499.54 279.18C498.152 279.177 496.822 278.624 495.841 277.642C494.861 276.659 494.31 275.328 494.31 273.94V268.73C494.31 267.343 494.861 266.013 495.842 265.032C496.823 264.051 498.153 263.5 499.54 263.5C500.927 263.5 502.257 264.051 503.238 265.032C504.219 266.013 504.77 267.343 504.77 268.73V273.94C504.77 275.328 504.219 276.659 503.239 277.642C502.258 278.624 500.928 279.177 499.54 279.18Z" fill="#F4EDE6" stroke="#070707" stroke-width="4" stroke-linecap="round" stroke-linejoin="round"/>
<path d="M273.23 335.72C272.543 335.72 271.863 335.585 271.229 335.322C270.594 335.059 270.018 334.674 269.532 334.188C269.046 333.703 268.661 333.126 268.398 332.491C268.135 331.857 268 331.177 268 330.49V325.28C267.969 324.573 268.082 323.868 268.331 323.206C268.58 322.544 268.961 321.939 269.45 321.428C269.939 320.917 270.527 320.51 271.177 320.232C271.828 319.954 272.528 319.811 273.235 319.811C273.942 319.811 274.643 319.954 275.293 320.232C275.944 320.51 276.531 320.917 277.02 321.428C277.51 321.939 277.89 322.544 278.139 323.206C278.388 323.868 278.501 324.573 278.47 325.28V330.49C278.467 331.878 277.914 333.208 276.932 334.189C275.949 335.169 274.618 335.72 273.23 335.72Z" fill="#F4EDE6" stroke="#070707" stroke-width="4" stroke-linecap="round" stroke-linejoin="round"/>
<path d="M316.09 192.56C316.433 195.071 317.69 197.368 319.62 199.01C322.04 201.087 325.132 202.213 328.32 202.18C335.12 202.18 340.63 197.33 340.63 191.35V189.35C340.649 187.865 340.987 186.401 341.62 185.057C342.253 183.713 343.167 182.521 344.3 181.56C346.764 179.444 349.913 178.296 353.16 178.33C360.08 178.33 365.69 183.26 365.69 189.33V213.52C365.706 215.235 366.091 216.927 366.819 218.48C367.547 220.033 368.601 221.411 369.91 222.52C372.746 224.943 376.361 226.26 380.09 226.23C388.09 226.23 394.5 220.55 394.5 213.56V198C394.5 193.6 398.56 190 403.56 190H403.83C408.68 190 412.62 193.46 412.62 197.73V206.11C412.636 207.434 412.937 208.738 413.501 209.935C414.065 211.133 414.88 212.195 415.89 213.05C418.085 214.933 420.889 215.953 423.78 215.92C429.94 215.92 434.94 211.53 434.94 206.11V186C434.94 181.61 438.94 178.67 443.94 178.67H444.21C449.05 178.67 452.97 181.51 452.97 185.76V201.14C452.97 205.59 457.06 209.14 462.11 209.14H462.38C467.28 209.14 471.25 205.65 471.25 201.34V198.1C471.269 196.557 471.619 195.037 472.277 193.641C472.934 192.246 473.883 191.007 475.06 190.01C477.62 187.816 480.889 186.626 484.26 186.66C491.45 186.66 497.26 191.78 497.26 198.1V207.18C497.276 208.568 497.591 209.937 498.183 211.193C498.775 212.449 499.63 213.564 500.69 214.46C502.998 216.433 505.944 217.499 508.98 217.46V194.37C508.981 191.593 508.436 188.844 507.374 186.279C506.312 183.713 504.755 181.382 502.791 179.419C500.828 177.456 498.497 175.898 495.932 174.837C493.366 173.775 490.617 173.229 487.84 173.23H337.15C331.856 173.228 326.755 175.214 322.855 178.793C318.955 182.373 316.541 187.286 316.09 192.56V192.56Z" fill="#EFAF00" stroke="black" stroke-width="4" stroke-linecap="round" stroke-linejoin="round"/>
<path d="M465.31 223.17C465.31 223.17 483.22 220.17 480.31 203.35Z" fill="#F4EDE6"/>
<path d="M465.31 223.17C465.31 223.17 483.22 220.17 480.31 203.35" stroke="#070707" stroke-width="4" stroke-linecap="round" stroke-linejoin="round"/>
<path d="M464.657 237.645C469.401 235.81 471.76 230.477 469.926 225.733C468.091 220.989 462.758 218.63 458.014 220.465C453.27 222.299 450.911 227.632 452.745 232.376C454.58 237.12 459.913 239.479 464.657 237.645Z" fill="#EA631F" stroke="#070707" stroke-width="4" stroke-linecap="round" stroke-linejoin="round"/>
<path d="M487.68 225.22C487.68 225.22 479.45 220.47 479.68 212.37Z" fill="#F4EDE6"/>
<path d="M487.68 225.22C487.68 225.22 479.45 220.47 479.68 212.37" stroke="#070707" stroke-width="4" stroke-linecap="round" stroke-linejoin="round"/>
<path d="M481.49 230.05C481.319 231.544 481.596 233.055 482.284 234.392C482.973 235.729 484.042 236.831 485.357 237.56C486.673 238.289 488.175 238.611 489.673 238.486C491.172 238.361 492.599 237.794 493.776 236.857C494.952 235.921 495.824 234.656 496.281 233.223C496.738 231.791 496.76 230.255 496.344 228.81C495.928 227.365 495.093 226.076 493.944 225.106C492.795 224.136 491.384 223.528 489.89 223.36C487.889 223.135 485.881 223.713 484.306 224.967C482.731 226.222 481.718 228.05 481.49 230.05V230.05Z" fill="#EA631F" stroke="#070707" stroke-width="4" stroke-linecap="round" stroke-linejoin="round"/>
<path d="M360.94 466.49H444.56C448.703 466.49 452.676 468.136 455.605 471.065C458.534 473.994 460.18 477.967 460.18 482.11V485.56H345.33V482.1C345.333 477.961 346.978 473.992 349.905 471.065C352.832 468.138 356.801 466.493 360.94 466.49V466.49Z" fill="#F4EDE6" stroke="#070707" stroke-width="4" stroke-linecap="round" stroke-linejoin="round"/>
<path d="M358.91 466.49C363.326 466.49 367.561 464.736 370.683 461.613C373.806 458.491 375.56 454.256 375.56 449.84V395.13C375.561 392.943 375.131 390.777 374.295 388.757C373.459 386.736 372.233 384.9 370.686 383.354C369.14 381.807 367.304 380.581 365.283 379.745C363.262 378.908 361.097 378.479 358.91 378.48H446.59C442.174 378.48 437.939 380.234 434.817 383.357C431.694 386.479 429.94 390.714 429.94 395.13V449.84C429.943 454.255 431.698 458.489 434.82 461.61C437.941 464.732 442.175 466.487 446.59 466.49H358.91V466.49Z" fill="#F4EDE6" stroke="#070707" stroke-width="4" stroke-linecap="round" stroke-linejoin="round"/>
<path d="M429.94 392C429.79 386.13 437.4 378.49 446.59 378.49H358.91C361.097 378.489 363.262 378.918 365.283 379.755C367.304 380.591 369.14 381.817 370.686 383.364C372.233 384.91 373.459 386.746 374.295 388.767C375.131 390.787 375.561 392.953 375.56 395.14V408L429.94 392Z" fill="#F4EDE6" stroke="#070707" stroke-width="4" stroke-linecap="round" stroke-linejoin="round"/>
<path d="M358.91 466.49C363.326 466.49 367.561 464.736 370.683 461.613C373.806 458.491 375.56 454.256 375.56 449.84V395.13C375.561 392.943 375.131 390.777 374.295 388.757C373.459 386.736 372.233 384.9 370.686 383.354C369.14 381.807 367.304 380.581 365.283 379.745C363.262 378.908 361.097 378.479 358.91 378.48H446.59C442.174 378.48 437.939 380.234 434.817 383.357C431.694 386.479 429.94 390.714 429.94 395.13V449.84C429.943 454.255 431.698 458.489 434.82 461.61C437.941 464.732 442.175 466.487 446.59 466.49H358.91V466.49Z" fill="#F4EDE6" stroke="#070707" stroke-width="4" stroke-linecap="round" stroke-linejoin="round"/>
<path d="M558.77 378.48H246.77C240.735 378.439 234.862 376.52 229.966 372.99C225.071 369.46 221.395 364.493 219.45 358.78L217.01 351.78H588.54L586.09 358.78C584.145 364.493 580.469 369.46 575.574 372.99C570.678 376.52 564.805 378.439 558.77 378.48Z" fill="#F4EDE6" stroke="#070707" stroke-width="4" stroke-linecap="round" stroke-linejoin="round"/>
<path d="M418.08 150.42C418.08 150.42 437.6 141.9 429.47 123.54" stroke="#070707" stroke-width="4" stroke-linecap="round" stroke-linejoin="round"/>
<path d="M415.25 169.05C421.22 169.05 426.06 164.21 426.06 158.24C426.06 152.27 421.22 147.43 415.25 147.43C409.28 147.43 404.44 152.27 404.44 158.24C404.44 164.21 409.28 169.05 415.25 169.05Z" fill="#EA631F" stroke="#070707" stroke-width="4" stroke-linecap="round" stroke-linejoin="round"/>
</g>
<defs>
<clipPath id="clip0">
<rect width="700" height="700" fill="white"/>
</clipPath>
</defs>
</svg>
